<svg width="44" height="44" viewBox="0 0 44 44" fill="none" xmlns="http://www.w3.org/2000/svg">
<path d="M22 16.375C23.5533 16.375 24.8125 15.1158 24.8125 13.5625C24.8125 12.0092 23.5533 10.75 22 10.75C20.4467 10.75 19.1875 12.0092 19.1875 13.5625C19.1875 15.1158 20.4467 16.375 22 16.375Z" fill="#ADB4EC"/>
<path d="M22 33.25C23.5533 33.25 24.8125 31.9908 24.8125 30.4375C24.8125 28.8842 23.5533 27.625 22 27.625C20.4467 27.625 19.1875 28.8842 19.1875 30.4375C19.1875 31.9908 20.4467 33.25 22 33.25Z" fill="#ADB4EC"/>
<path d="M32.125 19.75H11.875C10.6324 19.75 9.625 20.7574 9.625 22C9.625 23.2426 10.6324 24.25 11.875 24.25H32.125C33.3676 24.25 34.375 23.2426 34.375 22C34.375 20.7574 33.3676 19.75 32.125 19.75Z" fill="#ADB4EC"/>
</svg>

