<svg width="80" height="80" viewBox="0 0 80 80" fill="none" xmlns="http://www.w3.org/2000/svg">
<path fill-rule="evenodd" clip-rule="evenodd" d="M21.2161 44.5371L43.8689 30.8295V40.4313L13 59.2199L21.2161 44.5371Z" fill="#8D4D91"/>
<path fill-rule="evenodd" clip-rule="evenodd" d="M36.1699 7V42.1136L43.8689 47.1232V21.3497L36.1699 7Z" fill="#F1B945"/>
<path fill-rule="evenodd" clip-rule="evenodd" d="M36.1699 7L67.257 26.0908H51.7135L43.8689 21.3497L36.1699 7Z" fill="#E07C3D"/>
<path fill-rule="evenodd" clip-rule="evenodd" d="M43.9008 40.4312L67.2569 26.088H51.7134L43.8689 30.8293L43.9008 40.4312Z" fill="#C72C55"/>
<path fill-rule="evenodd" clip-rule="evenodd" d="M43.8689 49.0869V59.3231L36.1699 73.4526V43.129L43.8689 49.0869Z" fill="#75AF45"/>
<path fill-rule="evenodd" clip-rule="evenodd" d="M51.7135 54.5035L43.8689 59.3231L36.1699 73.4527L67.257 54.5035H51.7135Z" fill="#00853F"/>
<path fill-rule="evenodd" clip-rule="evenodd" d="M13 21.4132L21.2161 36.01V44.5371L13 59.22V21.4132Z" fill="#5C579E"/>
<path fill-rule="evenodd" clip-rule="evenodd" d="M13 21.4132L21.2161 36.01L51.7134 54.5035H67.257L13 21.4132Z" fill="#4386C5"/>
</svg>
